<svg height="25.591" viewBox="0 0 18.767 25.591" width="18.767" xmlns="http://www.w3.org/2000/svg">
    <path
        d="M26.5,1.342A13.743,13.743,0,0,0,21.886.49a8.134,8.134,0,0,0-3.849.871,8.373,8.373,0,0,1-3.892.772,22.794,22.794,0,0,1-5.292-.722V.427A.427.427,0,1,0,8,.427v1.28c0,.006,0,.011,0,.017s0,.009,0,.015V25.165a.427.427,0,1,0,.853,0V15.087a23.218,23.218,0,0,0,5.292.694,9.2,9.2,0,0,0,4.292-.871,7.293,7.293,0,0,1,3.449-.772,13.112,13.112,0,0,1,4.3.791.427.427,0,0,0,.585-.4V1.738A.426.426,0,0,0,26.5,1.342Z"
        fill="#b542d1" id="flag" transform="translate(-8)" />
</svg>
