<svg xmlns="http://www.w3.org/2000/svg" width="29.976" height="26.543" viewBox="0 0 29.976 26.543">
  <g id="gps" transform="translate(-0.001 -17.007)">
    <path id="Path_1859" d="M89.416,34.043a1.006,1.006,0,0,0,1.33,0c.241-.212,5.893-5.25,5.893-10.476a6.558,6.558,0,1,0-13.116,0C83.523,28.793,89.176,33.831,89.416,34.043Zm.665-12.19a1.714,1.714,0,1,1-1.7,1.714A1.707,1.707,0,0,1,90.081,21.853Z" transform="translate(-75.092)" fill="#fff"/>
    <path id="Path_1860" d="M47.548,155.556l-.76-2.662a1.006,1.006,0,0,0-.967-.73H40.4q-.294.437-.622.878a25.112,25.112,0,0,1-3.236,3.574,2.415,2.415,0,0,1-3.191,0,25.114,25.114,0,0,1-3.236-3.574q-.328-.441-.622-.878H24.072a1.006,1.006,0,0,0-.967.73l-.905,3.173,20.239,3.707Z" transform="translate(-19.958 -121.516)" fill="#fff"/>
    <path id="Path_1861" d="M193.546,206.7l-1.941-6.8-9.63,8.084h10.6a1.006,1.006,0,0,0,.967-1.282Z" transform="translate(-163.608 -164.429)" fill="#fff"/>
    <path id="Path_1862" d="M4.925,204.875l-3.072-.563L.039,210.668a1.006,1.006,0,0,0,.967,1.282H4.925Z" transform="translate(0 -168.4)" fill="#fff"/>
    <path id="Path_1863" d="M62.746,212.445v6.818h9.843l4.9-4.116Z" transform="translate(-56.412 -175.712)" fill="#fff"/>
  </g>
</svg>
