<svg height="27.53" id="spotlights" viewBox="0 0 26.941 27.53" width="26.941"
    xmlns="http://www.w3.org/2000/svg">
    <path
        d="M5.505,285.587l3.421-3.42-4.561-4.562-3.42,3.421a3.209,3.209,0,0,0,2.044,5.483V288.6H1.376v1.612H6.214V288.6H4.6v-2.384A3.215,3.215,0,0,0,5.505,285.587Zm0,0"
        fill="#fd9c00" id="Path_1801" transform="translate(0 -262.679)" />
    <path
        d="M343.021,285.591a3.224,3.224,0,0,0,0-4.561l-3.42-3.421-4.562,4.561,3.421,3.42a3.215,3.215,0,0,0,.9.625V288.6h-1.613v1.612h4.838V288.6h-1.613v-2.087A3.188,3.188,0,0,0,343.021,285.591Zm0,0"
        fill="#fd9c00" id="Path_1802" transform="translate(-317.024 -262.683)" />
    <path d="M121.022,17.5,135.656,7.048,128.608,0,118.156,14.634Zm0,0" fill="#fd9c00"
        id="Path_1803" transform="translate(-111.803)" />
    <path d="M276.328,234.847l2.864,2.046,2.866-2.866-1.548-2.167Zm0,0" fill="#fd9c00"
        id="Path_1804" transform="translate(-261.47 -219.393)" />
    <path d="M66.825,3.282,64.482,0,57.434,7.048l4.438,3.169Zm0,0" fill="#fd9c00" id="Path_1805"
        transform="translate(-54.345)" />
</svg>
