<svg height="27.054" viewBox="0 0 27.054 27.054" width="27.054" xmlns="http://www.w3.org/2000/svg">
    <path
        d="M27.054,13.527A13.527,13.527,0,1,0,13.527,27.054H27.054V24.8H20.995A13.525,13.525,0,0,0,27.054,13.527Zm-6.9,9.12a3.382,3.382,0,1,1,.748-4.724A3.382,3.382,0,0,1,20.153,22.647ZM19.987,7.873a3.382,3.382,0,1,1-2.171,4.261A3.382,3.382,0,0,1,19.987,7.873Zm-6.46-5.618a3.382,3.382,0,1,1-3.382,3.382A3.382,3.382,0,0,1,13.527,2.254ZM2.806,10.043A3.382,3.382,0,1,1,4.977,14.3,3.382,3.382,0,0,1,2.806,10.043ZM11.625,21.9a3.382,3.382,0,1,1-.748-4.723A3.382,3.382,0,0,1,11.625,21.9Zm.775-8.371a1.127,1.127,0,1,1,1.127,1.127A1.127,1.127,0,0,1,12.4,13.527Zm0,0"
        fill="#0dacf8" id="film" />
</svg>
