<svg height="16" id="Group_358" viewBox="0 0 16 16" width="16" xmlns="http://www.w3.org/2000/svg">
    <g id="Group_365">
        <rect fill="none" height="16" id="Rectangle_233" width="16" />
        <g id="gift_1_" transform="translate(0 1)">
            <path d="M120.376,17.34c-.477-.891-1.047-1.343-1.7-1.343-.748,0-1.524.611-2.308,1.816-.1.154-.194.309-.281.458-.087-.149-.181-.3-.281-.458C115.024,16.608,114.248,16,113.5,16c-.649,0-1.22.452-1.7,1.343a1.381,1.381,0,0,0-.057,1.43,2.907,2.907,0,0,0,2.1,1.055,13.3,13.3,0,0,0,2.206.174h.077a13.3,13.3,0,0,0,2.206-.174,2.909,2.909,0,0,0,2.1-1.055A1.382,1.382,0,0,0,120.376,17.34Z"
                fill="#da4453"
                id="Path_1834" transform="translate(-108.09 -15.997)" />
            <path d="M46,201.426a.667.667,0,0,0-.667-.667H32.667a.667.667,0,0,0-.667.667v7.893a.667.667,0,0,0,.667.666H45.333a.667.667,0,0,0,.667-.666v-7.893Z"
                fill="#8cc153"
                id="Path_1835" transform="translate(-31 -194.985)" />
            <path d="M16,116a.667.667,0,0,1-.667.667H.667A.667.667,0,0,1,0,116v-3.333A.667.667,0,0,1,.667,112H15.333a.667.667,0,0,1,.667.667V116Z"
                fill="#a0d468"
                id="Path_1836" transform="translate(0 -108.995)" />
            <rect fill="#ed5564" height="4.666" id="Rectangle_235" transform="translate(6.333 3)"
                width="3.334" />
            <path d="M32,262.645l14,1.273v-1.911H32Z" fill="#79a83d"
                id="Path_1837" transform="translate(-31 -254.319)" />
            <rect fill="#da4453" height="7.334" id="Rectangle_236" transform="translate(6.333 7.667)"
                width="3.334" />
            <path d="M202.66,263.13l3.334.3v-1.426H202.66Z" fill="#c63046"
                id="Path_1838" transform="translate(-196.327 -254.319)" />
        </g>
    </g>
</svg>
