<svg height="24.442" viewBox="0 0 16.462 24.442" width="16.462" xmlns="http://www.w3.org/2000/svg">
    <g id="cutlery" transform="translate(-0.819)">
        <g id="Group_426" transform="translate(0.819 0)">
            <g id="Group_425" transform="translate(0)">
                <path d="M7.544,1.53A3.525,3.525,0,0,0,4.728,0,3.525,3.525,0,0,0,1.912,1.53,5.805,5.805,0,0,0,.819,5.011,5.8,5.8,0,0,0,1.912,8.493,3.942,3.942,0,0,0,3.357,9.708L2.53,22.1a2.2,2.2,0,1,0,4.4,0L6.1,9.708A3.942,3.942,0,0,0,7.544,8.493,5.806,5.806,0,0,0,8.637,5.012,5.805,5.805,0,0,0,7.544,1.53ZM5.515,22.984a1.078,1.078,0,0,1-1.863-.806l.812-12.17c.087.007.175.012.264.012s.176-.005.264-.012L5.8,22.178A1.062,1.062,0,0,1,5.515,22.984ZM4.728,8.9a2.033,2.033,0,0,1-.587-.088L4.093,8.8c-1.23-.4-2.149-1.946-2.149-3.784,0-2.143,1.249-3.887,2.784-3.887S7.512,2.868,7.512,5.011,6.263,8.9,4.728,8.9Z"
                    fill="#e81667"
                    id="Path_1867" transform="translate(-0.819 -0.003)" />
            </g>
        </g>
        <g id="Group_430" transform="translate(11.04 0)">
            <g id="Group_429">
                <path d="M219.922,0a.561.561,0,0,0-.562.561V6.932h-1.433V.564a.562.562,0,0,0-1.125,0V6.932h-1.433V.564a.562.562,0,0,0-1.125,0V8.678a1.662,1.662,0,0,0,1.663,1.657h.1l-.789,11.823a2.151,2.151,0,1,0,4.293,0l-.789-11.823h.1a1.662,1.662,0,0,0,1.663-1.657V.564A.562.562,0,0,0,219.922,0Zm-1.808,23a1.026,1.026,0,0,1-1.774-.767l.794-11.9h.461l.794,11.9A1.01,1.01,0,0,1,218.114,23Zm1.246-14.321a.537.537,0,0,1-.538.536h-2.915a.537.537,0,0,1-.538-.536V8.053h3.991Z"
                    fill="#e81667"
                    id="Path_1869" transform="translate(-214.244 -0.003)" />
            </g>
        </g>
    </g>
</svg>
