<svg xmlns="http://www.w3.org/2000/svg" width="14" height="14" viewBox="0 0 14 14"><defs><style>.a{fill:none;}.b{fill:#e81667;}</style></defs><g transform="translate(-166 -729)"><rect class="a" width="14" height="14" transform="translate(166 729)"/><g transform="translate(166.001 701.947)"><path class="b" d="M2.314,150.212h1.9a9.736,9.736,0,0,0-2.1-2.69,1.164,1.164,0,0,0-.781-.309,1.368,1.368,0,0,0-.872.345,1.249,1.249,0,0,0-.074,1.848,6.3,6.3,0,0,1,.795,1.367A1.427,1.427,0,0,1,2.314,150.212Z" transform="translate(0 -115.657)"/><path class="b" d="M336.485,147.558a1.368,1.368,0,0,0-.872-.345,1.164,1.164,0,0,0-.781.309,9.735,9.735,0,0,0-2.1,2.69h1.9a1.427,1.427,0,0,1,1.133.56,6.3,6.3,0,0,1,.8-1.366A1.249,1.249,0,0,0,336.485,147.558Z" transform="translate(-322.946 -115.657)"/><path class="b" d="M61.183,271.942v-1.891a.842.842,0,0,0-.841-.841h-9.37a.842.842,0,0,0-.841.841v1.891a.842.842,0,0,0,.841.841h9.37A.842.842,0,0,0,61.183,271.942Z" transform="translate(-48.658 -234.067)"/><path class="b" d="M361.5,410.751l.139,1.1h.708l.139-1.1Z" transform="translate(-350.875 -371.446)"/><path class="b" d="M81.156,410.751l.139,1.1H82l.139-1.1Z" transform="translate(-78.771 -371.446)"/><path class="b" d="M72.24,34.555A10.014,10.014,0,0,1,74.6,31.434a1.75,1.75,0,0,1,.6-.364,5.8,5.8,0,0,0-10.176,0,1.75,1.75,0,0,1,.6.364,10.013,10.013,0,0,1,2.361,3.122Z" transform="translate(-63.115 0)"/></g></g></svg>