<svg height="20" id="parking" viewBox="0 0 20 20" width="20" xmlns="http://www.w3.org/2000/svg">
    <g id="Group_422">
        <g id="Group_421">
            <path d="M17.656,0H2.344A2.346,2.346,0,0,0,0,2.344V17.656A2.346,2.346,0,0,0,2.344,20H17.656A2.346,2.346,0,0,0,20,17.656V2.344A2.346,2.346,0,0,0,17.656,0Zm.781,17.656a.782.782,0,0,1-.781.781H2.344a.782.782,0,0,1-.781-.781V2.344a.782.782,0,0,1,.781-.781H17.656a.782.782,0,0,1,.781.781Z"
                fill="#e81667"
                id="Path_1865" />
            <path d="M151.469,100H146v12.188h1.563v-4.375h3.906a3.906,3.906,0,0,0,0-7.813Zm0,6.25h-3.906v-4.687h3.906a2.344,2.344,0,0,1,0,4.688Z"
                fill="#e81667"
                id="Path_1866" transform="translate(-140.297 -96.094)" />
        </g>
    </g>
</svg>
