<svg height="23.213" viewBox="0 0 26.529 23.213" width="26.529" xmlns="http://www.w3.org/2000/svg">
    <g id="theater-masks" transform="translate(0 -32.764)">
        <path
            d="M257.406,98.427a.834.834,0,0,0-.85.036,13.627,13.627,0,0,1-7.012,1.517l.007,6.636a9.881,9.881,0,0,1-.6,3.377,3.289,3.289,0,0,1,3.919,3.255H247a9.981,9.981,0,0,1-3.355,2.451,8.186,8.186,0,0,0,5.909,2.523,8.3,8.3,0,0,0,8.29-8.29V99.154A.829.829,0,0,0,257.406,98.427Zm-6.2,8.189a1.658,1.658,0,1,1,3.316,0Z"
            fill="#e65166" id="Path_1806" transform="translate(-231.312 -62.245)" />
        <path
            d="M16.581,44.372V33.594A.831.831,0,0,0,15.3,32.9c-.023.015-2.386,1.521-7,1.521-4.593,0-6.955-1.489-7-1.52A.829.829,0,0,0,0,33.594V44.372a8.29,8.29,0,1,0,16.581,0ZM4.974,39.4a1.658,1.658,0,0,1,1.658,1.658H3.316A1.658,1.658,0,0,1,4.974,39.4Zm3.316,8.29a3.316,3.316,0,0,1-3.316-3.316h6.632A3.316,3.316,0,0,1,8.29,47.688Zm1.658-6.632a1.658,1.658,0,0,1,3.316,0Z"
            fill="#e65166" id="Path_1807" transform="translate(0 0)" />
    </g>
</svg>
