<svg height="10" viewBox="0 0 10 10" width="10" xmlns="http://www.w3.org/2000/svg">
    <g id="Group_348" transform="translate(-20 -332)">
        <rect fill="none" height="10" id="Rectangle_229" transform="translate(20 332)" width="10" />
        <g id="theater-masks" transform="translate(20 304.824)">
            <path d="M56.978,140.882a.625.625,0,0,0-.625.625H57.6A.625.625,0,0,0,56.978,140.882Z"
                fill="#999"
                id="path-1_56_" transform="translate(-55.059 -110.095)" />
            <path d="M169.684,140.882a.625.625,0,0,0-.625.625h1.25A.625.625,0,0,0,169.684,140.882Z"
                fill="#999"
                id="path-1_55_" transform="translate(-165.176 -110.095)" />
            <path d="M338.743,197.235a.625.625,0,0,0-.625.625h1.25A.625.625,0,0,0,338.743,197.235Z"
                fill="#999"
                id="path-1_54_" transform="translate(-330.352 -165.154)" />
            <path d="M85.779,226.662a1.25,1.25,0,0,0,1.25-1.25h-2.5A1.25,1.25,0,0,0,85.779,226.662Z"
                fill="#999"
                id="Path_1820" transform="translate(-82.654 -192.861)" />
            <path d="M267.272,281.787a3.748,3.748,0,0,1-.736,1.227h2.213a1.24,1.24,0,0,0-1.477-1.227Z"
                fill="#999"
                id="Path_1821" transform="translate(-260.624 -247.963)" />
            <path d="M214.711,84.595a.314.314,0,0,0-.32.013,5.137,5.137,0,0,1-2.643.572v.626h0a6.654,6.654,0,0,0,2.5-.436v3.561a2.5,2.5,0,0,1-2.5,2.5,2.465,2.465,0,0,1-1.657-.64,3.748,3.748,0,0,1-.57.313,3.086,3.086,0,0,0,2.227.951,3.129,3.129,0,0,0,3.125-3.125V84.869A.313.313,0,0,0,214.711,84.595Z"
                fill="#999"
                id="Path_1822" transform="translate(-204.875 -55.131)" />
            <path d="M6.25,32.551V28.489a.313.313,0,0,0-.485-.261,5.191,5.191,0,0,1-2.64.573,5.2,5.2,0,0,1-2.64-.573A.312.312,0,0,0,0,28.489v4.063a3.125,3.125,0,1,0,6.25,0Zm-3.125,2.5a2.5,2.5,0,0,1-2.5-2.5V28.99a6.653,6.653,0,0,0,2.5.436,6.654,6.654,0,0,0,2.5-.436v3.561A2.5,2.5,0,0,1,3.125,35.051Z"
                fill="#999"
                id="Path_1823" transform="translate(0 0)" />
        </g>
    </g>
</svg>
