<svg height="22" viewBox="0 0 23.087 22" width="23.087" xmlns="http://www.w3.org/2000/svg">
    <g id="rocking-horse" transform="translate(0.002 -12.055)">
        <g id="Group_432" transform="translate(-0.002 12.055)">
            <g id="Group_431" transform="translate(0 0)">
                <path d="M22.859,17.083l-2.011-2.977.311-1.211a.6.6,0,0,0-.477-.736,5.233,5.233,0,0,0-4.067.773c-2.054,1.474-2.536,4.4-2.717,5.533H7.915a3.832,3.832,0,0,0-1.093.163,2.422,2.422,0,0,0-2.3-1.713H3.774A2.432,2.432,0,0,0,1.35,19.363v5.454a.587.587,0,0,0,.328.537.573.573,0,0,0,.253.059.589.589,0,0,0,.37-.13l1.727-1.571a42.51,42.51,0,0,0,1.684,5.884,7.883,7.883,0,0,1-2.7-1.553A1.79,1.79,0,0,0,0,29.209,1.762,1.762,0,0,0,.55,30.636a11.235,11.235,0,0,0,3.892,2.3,19.666,19.666,0,0,0,6.7,1.115,19.665,19.665,0,0,0,6.7-1.115,11.23,11.23,0,0,0,3.892-2.3,1.762,1.762,0,0,0,.546-1.427A1.793,1.793,0,0,0,20.5,27.558a1.764,1.764,0,0,0-1.218.484,7.855,7.855,0,0,1-2.666,1.541,19.288,19.288,0,0,0,1.829-6.893c0-2.615.6-3.24.861-3.387.37-.21.892.035,1.171.2a1.323,1.323,0,0,0,1.543-.143l.613-.534A1.33,1.33,0,0,0,22.859,17.083Zm-14,2.575h5.007v.132a2.292,2.292,0,0,1-2.281,2.252H11.1A2.26,2.26,0,0,1,8.86,19.79Zm-4.494.827a3.349,3.349,0,0,0-.529,2.046L2.542,23.578V19.363h0a1.239,1.239,0,0,1,1.232-1.255h.745a1.215,1.215,0,0,1,1.194.983s0,.024,0,.049A4.4,4.4,0,0,0,4.365,20.485ZM20.1,28.907a.576.576,0,0,1,.4-.157.6.6,0,0,1,.6.554.57.57,0,0,1-.177.467h0a10.054,10.054,0,0,1-3.483,2.05,18.463,18.463,0,0,1-6.291,1.042,18.465,18.465,0,0,1-6.291-1.042,10.06,10.06,0,0,1-3.484-2.051.571.571,0,0,1-.177-.467.6.6,0,0,1,.6-.554.577.577,0,0,1,.4.156,10.036,10.036,0,0,0,4.352,2.2c.137.036.281.072.428.106a17.472,17.472,0,0,0,2.043.346,19.662,19.662,0,0,0,4.242,0,17.292,17.292,0,0,0,2.064-.348c.126-.029.261-.063.428-.106A10.049,10.049,0,0,0,20.1,28.907Zm-9.014-3.046h.147a1.317,1.317,0,0,1,1.383,1.444v3.116a18.616,18.616,0,0,1-2.92,0V27.305A1.341,1.341,0,0,1,11.085,25.861Zm10.763-7.934h0l-.613.534a.132.132,0,0,1-.154.017,2.318,2.318,0,0,0-2.368-.211c-.984.561-1.463,2.007-1.463,4.423,0,2.108-.912,4.38-1.795,6.577-.1.249-.2.5-.3.755-.036.009-.061.017-.094.025-.408.1-.834.175-1.252.239V27.3A2.45,2.45,0,0,0,11.4,24.678c-.036,0-.079-.006-.115-.007a2.619,2.619,0,0,0-.269,0c-.04,0-.072.009-.113.009A2.425,2.425,0,0,0,8.5,27.3v2.978c-.417-.064-.85-.142-1.252-.236l-.1-.024a41.066,41.066,0,0,1-2.1-7.346c0-.027-.011-.055-.015-.079a2.69,2.69,0,0,1,1.6-2.613,3.206,3.206,0,0,1,1.035-.312v.116A3.453,3.453,0,0,0,11.1,23.234h.48a3.485,3.485,0,0,0,3.473-3.444v-.725c0-.011-.024-.02-.025-.03.018-.091.025-.206.048-.349.171-1.073.565-3.586,2.233-4.783a3.8,3.8,0,0,1,2.523-.645l-.209.811a.6.6,0,0,0,.083.482l2.16,3.2A.136.136,0,0,1,21.848,17.928Z"
                    fill="#e81667"
                    id="Path_1870" transform="translate(0.002 -12.055)" />
                <circle cx="0.447" cy="0.447" fill="#e81667" id="Ellipse_11"
                    r="0.447" transform="translate(18.307 3.304)" />
            </g>
        </g>
    </g>
</svg>
