<svg height="16.104" viewBox="0 0 18.254 16.104" width="18.254" xmlns="http://www.w3.org/2000/svg">
    <g id="sofa" transform="translate(0.001 -28.053)">
        <path d="M3.017,151.123H5.5a12.694,12.694,0,0,0-2.743-3.508,1.518,1.518,0,0,0-1.019-.4,1.784,1.784,0,0,0-1.136.45,1.628,1.628,0,0,0-.1,2.409,8.216,8.216,0,0,1,1.037,1.782A1.861,1.861,0,0,1,3.017,151.123Z"
            fill="#fff"
            id="Path_1839" transform="translate(0 -114.592)" />
        <path d="M337.626,147.663a1.784,1.784,0,0,0-1.136-.45,1.518,1.518,0,0,0-1.019.4,12.693,12.693,0,0,0-2.743,3.508h2.48a1.861,1.861,0,0,1,1.478.73,8.217,8.217,0,0,1,1.037-1.782A1.628,1.628,0,0,0,337.626,147.663Z"
            fill="#fff"
            id="Path_1840" transform="translate(-319.974 -114.592)" />
        <path d="M64.542,272.773v-2.466a1.1,1.1,0,0,0-1.1-1.1H51.228a1.1,1.1,0,0,0-1.1,1.1v2.466a1.1,1.1,0,0,0,1.1,1.1H63.445A1.1,1.1,0,0,0,64.542,272.773Z"
            fill="#fff"
            id="Path_1841" transform="translate(-48.21 -231.912)" />
        <path d="M361.5,410.751l.181,1.432h.923l.181-1.432Z" fill="#fff"
            id="Path_1842" transform="translate(-347.645 -368.027)" />
        <path d="M81.156,410.751l.181,1.432h.923l.181-1.432Z" fill="#fff"
            id="Path_1843" transform="translate(-78.046 -368.027)" />
        <path d="M74.433,36.531a13.057,13.057,0,0,1,3.078-4.07,2.281,2.281,0,0,1,.783-.475,7.562,7.562,0,0,0-13.268,0,2.282,2.282,0,0,1,.784.475,13.056,13.056,0,0,1,3.078,4.07Z"
            fill="#fff"
            id="Path_1844" transform="translate(-62.534 0)" />
    </g>
</svg>
