<?xml version="1.0" encoding="iso-8859-1"?><!-- Generator: Adobe Illustrator 19.0.0, SVG Export Plug-In . SVG Version: 6.00 Build 0)  -->
<svg version="1.1" id="Capa_1" xmlns="http://www.w3.org/2000/svg"
    xmlns:xlink="http://www.w3.org/1999/xlink" x="0px" y="0px" viewBox="0 0 512 512"
    style="enable-background:new 0 0 512 512;" xml:space="preserve">
<g>
	<g>
		<path d="M501.333,202.667c5.896,0,10.667-4.771,10.667-10.667v-85.333C512,83.135,492.865,64,469.333,64H42.667
			C19.135,64,0,83.135,0,106.667V192c0,5.896,4.771,10.667,10.667,10.667C40.073,202.667,64,226.594,64,256
			s-23.927,53.333-53.333,53.333C4.771,309.333,0,314.104,0,320v85.333C0,428.865,19.135,448,42.667,448h426.667
			C492.865,448,512,428.865,512,405.333V320c0-5.896-4.771-10.667-10.667-10.667C471.927,309.333,448,285.406,448,256
			S471.927,202.667,501.333,202.667z M149.333,394.667c0,5.896-4.771,10.667-10.667,10.667c-5.896,0-10.667-4.771-10.667-10.667
			v-21.333c0-5.896,4.771-10.667,10.667-10.667c5.896,0,10.667,4.771,10.667,10.667V394.667z M149.333,309.333
			c0,5.896-4.771,10.667-10.667,10.667c-5.896,0-10.667-4.771-10.667-10.667V288c0-5.896,4.771-10.667,10.667-10.667
			c5.896,0,10.667,4.771,10.667,10.667V309.333z M149.333,224c0,5.896-4.771,10.667-10.667,10.667
			c-5.896,0-10.667-4.771-10.667-10.667v-21.333c0-5.896,4.771-10.667,10.667-10.667c5.896,0,10.667,4.771,10.667,10.667V224z
			 M149.333,138.667c0,5.896-4.771,10.667-10.667,10.667c-5.896,0-10.667-4.771-10.667-10.667v-24
			c0-5.896,4.771-10.667,10.667-10.667c5.896,0,10.667,4.771,10.667,10.667V138.667z M373.333,341.333H224
			c-5.896,0-10.667-4.771-10.667-10.667c0-5.896,4.771-10.667,10.667-10.667h149.333c5.896,0,10.667,4.771,10.667,10.667
			C384,336.563,379.229,341.333,373.333,341.333z M373.333,266.667H224c-5.896,0-10.667-4.771-10.667-10.667
			s4.771-10.667,10.667-10.667h149.333c5.896,0,10.667,4.771,10.667,10.667S379.229,266.667,373.333,266.667z M373.333,192H224
			c-5.896,0-10.667-4.771-10.667-10.667c0-5.896,4.771-10.667,10.667-10.667h149.333c5.896,0,10.667,4.771,10.667,10.667
			C384,187.229,379.229,192,373.333,192z" />
	</g>
</g>
    <g>
</g>
    <g>
</g>
    <g>
</g>
    <g>
</g>
    <g>
</g>
    <g>
</g>
    <g>
</g>
    <g>
</g>
    <g>
</g>
    <g>
</g>
    <g>
</g>
    <g>
</g>
    <g>
</g>
    <g>
</g>
    <g>
</g>
</svg>
