<svg height="40" viewBox="0 0 40 40" width="40" xmlns="http://www.w3.org/2000/svg">
    <g id="Group_1941" transform="translate(-440 -198)">
        <rect fill="none" height="40" id="Rectangle_1282" rx="4" transform="translate(440 198)"
            width="40" />
        <g id="mastercard" transform="translate(440.667 206)">
            <path d="M24.157,66.719a12.079,12.079,0,1,1-12.079-12A12.038,12.038,0,0,1,24.157,66.719Z"
                fill="#e2574c"
                id="Path_414" transform="translate(0 -54.719)" />
            <path d="M121.514,54.719a12.066,12.066,0,0,0-7.218,2.393h.01a10.326,10.326,0,0,1,1.171,1.086l-2.513.04a12.364,12.364,0,0,0-1.091,1.271H116.3a11.158,11.158,0,0,1,.932,1.2h-6.167a11.924,11.924,0,0,0-.617,1.2h7.486a10.184,10.184,0,0,1,.52,1.158h-8.449a11.493,11.493,0,0,0-.336,1.27h9.139c.089.415.158.8.205,1.19H109.49a11.944,11.944,0,0,0-.06,1.2h9.655a10.472,10.472,0,0,1-.074,1.2H109.49q.062.61.181,1.2H118.8c-.094.389-.2.78-.339,1.186H109.98a11.6,11.6,0,0,0,.454,1.2h7.5a10.914,10.914,0,0,1-.7,1.2h-6.187a11.673,11.673,0,0,0,.806,1.2l4.451.066a11.74,11.74,0,0,1-1.31,1.121c.024.019-.709,0-2.153-.025a12.039,12.039,0,1,0,8.673-20.345Z"
                fill="#f4b459"
                id="Path_415" transform="translate(-94.929 -54.719)" />
        </g>
    </g>
</svg>
