<svg height="70" viewBox="0 0 240.001 70" width="240.001" xmlns="http://www.w3.org/2000/svg">
    <path d="M14878.993-6445.578a.513.513,0,0,1-.3-.464.5.5,0,0,1,.139-.352.459.459,0,0,1,.344-.146.574.574,0,0,1,.184.03c.022.007.09.03.2.075s.187.071.231.086.12.045.236.083a2.736,2.736,0,0,0,.284.079l.289.063a3.237,3.237,0,0,0,.333.06c.1.015.21.026.337.038s.255.015.382.015a2.605,2.605,0,0,0,1.888-.614,2.336,2.336,0,0,0,.641-1.768v-1.592a2.654,2.654,0,0,1-1,1.161,2.881,2.881,0,0,1-1.592.431,3.894,3.894,0,0,1-1.576-.311,3.112,3.112,0,0,1-1.161-.846,3.823,3.823,0,0,1-.7-1.251,4.789,4.789,0,0,1-.243-1.543,5.184,5.184,0,0,1,.411-2.1,3.477,3.477,0,0,1,1.259-1.505,3.4,3.4,0,0,1,1.974-.569,2.777,2.777,0,0,1,2.678,1.547v-.809a.59.59,0,0,1,.225-.431.7.7,0,0,1,.453-.157.707.707,0,0,1,.486.184.64.64,0,0,1,.2.5v7.247a3.184,3.184,0,0,1-1.026,2.577,4.237,4.237,0,0,1-2.812.865A5.836,5.836,0,0,1,14878.993-6445.578Zm1.431-9.523a2.462,2.462,0,0,0-.816,1.127,4.674,4.674,0,0,0-.251,1.581,3.273,3.273,0,0,0,.7,2.266,2.261,2.261,0,0,0,1.756.771,2.1,2.1,0,0,0,1.7-.809,3.458,3.458,0,0,0,.659-2.258,5.675,5.675,0,0,0-.071-.936,3.635,3.635,0,0,0-.247-.843,2.478,2.478,0,0,0-.435-.7,1.887,1.887,0,0,0-.674-.468,2.429,2.429,0,0,0-.929-.172A2.191,2.191,0,0,0,14880.424-6455.1Zm-158.635,10.1a13.2,13.2,0,0,0-13.261-13.126,13.2,13.2,0,0,0-13.265,13.126h-8.842a4.4,4.4,0,0,1-4.423-4.374v-61.248a4.4,4.4,0,0,1,4.423-4.378h8.842a13.2,13.2,0,0,0,13.265,13.126,13.192,13.192,0,0,0,13.261-13.126h8.842a4.4,4.4,0,0,1,4.423,4.378v61.248a4.4,4.4,0,0,1-4.423,4.374Zm0-25.874h8.842v-4.374h-8.842Zm-17.684,0h8.842v-4.374h-8.842Zm-17.684,0h8.842v-4.374h-8.842Zm133.1,25.169c-.136-.007-.2-.09-.2-.25a.486.486,0,0,1,.008-.1l.678-3.812c.049-.289.243-.438.588-.45h.857a.282.282,0,0,1,.3.307.664.664,0,0,1-.022.143l-1.321,3.812a.442.442,0,0,1-.427.348Zm84.976-2.8a4.584,4.584,0,0,1-1.3-.614.509.509,0,0,1-.239-.434.468.468,0,0,1,.135-.333.472.472,0,0,1,.349-.139.686.686,0,0,1,.37.113,4.477,4.477,0,0,0,2.337.689,2.622,2.622,0,0,0,1.435-.349,1.139,1.139,0,0,0,.543-1.022,1,1,0,0,0-.308-.771,2.285,2.285,0,0,0-1.015-.468l-1.427-.352q-.438-.112-.708-.191c-.18-.056-.37-.124-.58-.21a2.116,2.116,0,0,1-.494-.277,2.082,2.082,0,0,1-.349-.356,1.33,1.33,0,0,1-.232-.49,2.6,2.6,0,0,1-.074-.645,1.914,1.914,0,0,1,.258-1,1.868,1.868,0,0,1,.708-.689,3.6,3.6,0,0,1,1-.375,5.594,5.594,0,0,1,1.209-.127,5.5,5.5,0,0,1,1.473.191,5.513,5.513,0,0,1,1.127.419.511.511,0,0,1,.314.476.426.426,0,0,1-.127.314.434.434,0,0,1-.334.135.683.683,0,0,1-.251-.049c-.015,0-.1-.037-.262-.1s-.288-.108-.386-.138-.236-.071-.408-.116a3.587,3.587,0,0,0-.524-.1,3.668,3.668,0,0,0-.539-.038,2.961,2.961,0,0,0-1.39.277.92.92,0,0,0-.517.869.8.8,0,0,0,.266.682,3.811,3.811,0,0,0,1.146.412l1.4.344a3.486,3.486,0,0,1,1.737.854,2,2,0,0,1,.521,1.427,2.19,2.19,0,0,1-.431,1.378,2.442,2.442,0,0,1-1.135.816,4.8,4.8,0,0,1-1.629.25A5.465,5.465,0,0,1,14904.5-6448.5Zm-115.321,0a4.691,4.691,0,0,1-1.3-.614.509.509,0,0,1-.239-.434.468.468,0,0,1,.135-.333.472.472,0,0,1,.349-.139.688.688,0,0,1,.37.113,4.48,4.48,0,0,0,2.341.689,2.617,2.617,0,0,0,1.431-.349,1.143,1.143,0,0,0,.547-1.022,1.015,1.015,0,0,0-.308-.771,2.326,2.326,0,0,0-1.019-.468l-1.427-.352q-.438-.112-.708-.191c-.18-.056-.37-.124-.58-.21a2.116,2.116,0,0,1-.494-.277,2.082,2.082,0,0,1-.349-.356,1.394,1.394,0,0,1-.232-.49,2.556,2.556,0,0,1-.074-.645,1.914,1.914,0,0,1,.258-1,1.868,1.868,0,0,1,.708-.689,3.647,3.647,0,0,1,1-.375,5.594,5.594,0,0,1,1.209-.127,5.494,5.494,0,0,1,1.472.191,5.5,5.5,0,0,1,1.128.419.511.511,0,0,1,.314.476.426.426,0,0,1-.127.314.434.434,0,0,1-.334.135.68.68,0,0,1-.251-.049c-.015,0-.1-.037-.262-.1s-.288-.108-.386-.138-.236-.071-.408-.116a3.612,3.612,0,0,0-.524-.1,3.63,3.63,0,0,0-.539-.038,2.969,2.969,0,0,0-1.39.277.92.92,0,0,0-.517.869.8.8,0,0,0,.266.682,3.811,3.811,0,0,0,1.146.412l1.4.344a3.468,3.468,0,0,1,1.737.854,2,2,0,0,1,.521,1.427,2.19,2.19,0,0,1-.431,1.378,2.442,2.442,0,0,1-1.135.816,4.8,4.8,0,0,1-1.629.25A5.465,5.465,0,0,1,14789.179-6448.5Zm60.215-.524a3.1,3.1,0,0,1-.8-2.33v-4.325a.622.622,0,0,1,.221-.509.78.78,0,0,1,.518-.184.764.764,0,0,1,.509.184.617.617,0,0,1,.218.509v4.34a2.29,2.29,0,0,0,.468,1.562,1.681,1.681,0,0,0,1.337.536,2.141,2.141,0,0,0,1.58-.655,2.64,2.64,0,0,0,.7-1.794v-3.988a.625.625,0,0,1,.218-.506.775.775,0,0,1,.517-.187.745.745,0,0,1,.5.184.624.624,0,0,1,.21.509v6.606a.608.608,0,0,1-.217.5.767.767,0,0,1-.517.184.78.78,0,0,1-.506-.172.589.589,0,0,1-.21-.487v-.715a2.273,2.273,0,0,1-1.011,1.124,3.281,3.281,0,0,1-1.629.393A2.9,2.9,0,0,1,14849.394-6449.026Zm-9.5-.386a4.183,4.183,0,0,1-1.094-2.97,4.2,4.2,0,0,1,1.094-2.981,3.853,3.853,0,0,1,2.947-1.161,3.866,3.866,0,0,1,2.951,1.157,4.171,4.171,0,0,1,1.094,2.985,4.18,4.18,0,0,1-1.09,2.97,3.855,3.855,0,0,1-2.955,1.161A3.855,3.855,0,0,1,14839.889-6449.412Zm1.045-5.281a3.577,3.577,0,0,0-.686,2.311,3.546,3.546,0,0,0,.682,2.288,2.293,2.293,0,0,0,1.892.85,2.35,2.35,0,0,0,1.925-.839,3.557,3.557,0,0,0,.682-2.3,3.561,3.561,0,0,0-.689-2.3,2.31,2.31,0,0,0-1.9-.854A2.324,2.324,0,0,0,14840.934-6454.693Zm-35.737,5.838a2.015,2.015,0,0,1-.791-1.708,3.017,3.017,0,0,1,.1-.8,1.948,1.948,0,0,1,.273-.607,1.463,1.463,0,0,1,.5-.442,3.566,3.566,0,0,1,.708-.3,5.111,5.111,0,0,1,.984-.176c.4-.042.81-.071,1.229-.086s.933-.022,1.532-.022v-.876a1.6,1.6,0,0,0-.461-1.266,1.867,1.867,0,0,0-1.284-.412,4.851,4.851,0,0,0-.981.1,5.684,5.684,0,0,0-.775.21c-.187.067-.42.165-.692.289a.46.46,0,0,1-.2.041.481.481,0,0,1-.363-.172.573.573,0,0,1-.153-.382.407.407,0,0,1,.225-.371,6.027,6.027,0,0,1,2.978-.7,3.557,3.557,0,0,1,2.311.682,2.552,2.552,0,0,1,.835,2.1v4.682a.606.606,0,0,1-.221.494.789.789,0,0,1-.514.18.757.757,0,0,1-.494-.172.6.6,0,0,1-.206-.487v-.771a2.563,2.563,0,0,1-2.482,1.565A3.286,3.286,0,0,1,14805.2-6448.854Zm2.905-3.269a9.3,9.3,0,0,0-1.115.127,1.848,1.848,0,0,0-.727.273,1.148,1.148,0,0,0-.356.438,1.592,1.592,0,0,0-.119.659,1.273,1.273,0,0,0,.438,1.071,1.863,1.863,0,0,0,1.184.341,2.131,2.131,0,0,0,1.625-.764,2.741,2.741,0,0,0,.7-1.939v-.24Q14808.731-6452.157,14808.1-6452.124Zm-10.594,3.374a3.582,3.582,0,0,1-1.424-1.438,4.514,4.514,0,0,1-.527-2.221,4.636,4.636,0,0,1,.441-2.037,3.665,3.665,0,0,1,1.341-1.5,3.757,3.757,0,0,1,2.09-.577,4.1,4.1,0,0,1,1.651.311,2.817,2.817,0,0,1,1.131.865,3.834,3.834,0,0,1,.629,1.229,5.55,5.55,0,0,1,.232,1.487.572.572,0,0,1-.127.386.478.478,0,0,1-.386.153h-5.535a2.857,2.857,0,0,0,.741,2.09,2.6,2.6,0,0,0,1.865.727,3.076,3.076,0,0,0,1.288-.259,5.662,5.662,0,0,0,1.153-.7.5.5,0,0,1,.308-.112.42.42,0,0,1,.329.15.51.51,0,0,1,.131.348.6.6,0,0,1-.225.457,4.456,4.456,0,0,1-3.082,1.138A4.173,4.173,0,0,1,14797.508-6448.75Zm.978-6.572a2.1,2.1,0,0,0-.753.584,3,3,0,0,0-.472.809,3.4,3.4,0,0,0-.21.944h4.748a3.2,3.2,0,0,0-.637-1.839,1.988,1.988,0,0,0-1.655-.715A2.4,2.4,0,0,0,14798.485-6455.322Zm-29.765,6.3a3.115,3.115,0,0,1-.794-2.33v-4.325a.617.617,0,0,1,.217-.509.792.792,0,0,1,.517-.184.777.777,0,0,1,.514.184.628.628,0,0,1,.213.509v4.34a2.29,2.29,0,0,0,.468,1.562,1.683,1.683,0,0,0,1.338.536,2.149,2.149,0,0,0,1.584-.655,2.661,2.661,0,0,0,.7-1.794v-3.988a.627.627,0,0,1,.217-.506.777.777,0,0,1,.517-.187.765.765,0,0,1,.51.184.636.636,0,0,1,.21.509v6.606a.608.608,0,0,1-.222.5.755.755,0,0,1-.513.184.792.792,0,0,1-.51-.172.6.6,0,0,1-.209-.487v-.715a2.262,2.262,0,0,1-1.008,1.124,3.28,3.28,0,0,1-1.633.393A2.9,2.9,0,0,1,14768.721-6449.026Zm-9.5-.386a4.18,4.18,0,0,1-1.09-2.97,4.194,4.194,0,0,1,1.09-2.981,3.855,3.855,0,0,1,2.951-1.161,3.859,3.859,0,0,1,2.947,1.157,4.175,4.175,0,0,1,1.093,2.985,4.18,4.18,0,0,1-1.09,2.97,3.843,3.843,0,0,1-2.95,1.161A3.856,3.856,0,0,1,14759.216-6449.412Zm1.045-5.281a3.577,3.577,0,0,0-.686,2.311,3.546,3.546,0,0,0,.682,2.288,2.3,2.3,0,0,0,1.891.85,2.34,2.34,0,0,0,1.926-.839,3.54,3.54,0,0,0,.681-2.3,3.539,3.539,0,0,0-.688-2.3,2.31,2.31,0,0,0-1.9-.854A2.325,2.325,0,0,0,14760.261-6454.693Zm139.637,6.412a1.907,1.907,0,0,1-1.476-.6,2.643,2.643,0,0,1-.55-1.843v-4.621h-.981a.58.58,0,0,1-.408-.131.424.424,0,0,1-.143-.344.46.46,0,0,1,.135-.341.578.578,0,0,1,.4-.131h.993l.194-2.28a.624.624,0,0,1,.229-.442.719.719,0,0,1,.472-.184.562.562,0,0,1,.4.15.543.543,0,0,1,.161.427v2.329h1.487a.53.53,0,0,1,.4.135.488.488,0,0,1,.135.355c0,.3-.18.457-.531.457h-1.487v4.374a2.276,2.276,0,0,0,.236,1.191.812.812,0,0,0,.741.367h.086l.551-.026h.049a.538.538,0,0,1,.419.168.57.57,0,0,1,.154.393.539.539,0,0,1-.091.326.507.507,0,0,1-.27.18,1.557,1.557,0,0,1-.363.071c-.119.011-.276.019-.472.019Zm-83.755,0a1.913,1.913,0,0,1-1.476-.6,2.662,2.662,0,0,1-.547-1.843v-4.621h-.985a.58.58,0,0,1-.408-.131.436.436,0,0,1-.142-.344.459.459,0,0,1,.139-.341.565.565,0,0,1,.4-.131h.992l.19-2.28a.637.637,0,0,1,.232-.442.719.719,0,0,1,.472-.184.573.573,0,0,1,.405.15.556.556,0,0,1,.16.427v2.329h1.483a.545.545,0,0,1,.4.135.5.5,0,0,1,.132.355c0,.3-.177.457-.532.457h-1.483v4.374a2.281,2.281,0,0,0,.232,1.191.821.821,0,0,0,.742.367h.09l.546-.026h.049a.536.536,0,0,1,.42.168.556.556,0,0,1,.153.393.574.574,0,0,1-.086.326.511.511,0,0,1-.273.18,1.545,1.545,0,0,1-.359.071c-.124.011-.281.019-.476.019Zm77.572-.3a.623.623,0,0,1-.214-.505v-4.46a1.986,1.986,0,0,0-.464-1.43,1.719,1.719,0,0,0-1.281-.472,2.317,2.317,0,0,0-1.666.644,2.4,2.4,0,0,0-.678,1.828v3.891a.611.611,0,0,1-.225.505.78.78,0,0,1-.521.188.744.744,0,0,1-.5-.187.623.623,0,0,1-.214-.505v-10.1a.6.6,0,0,1,.218-.491.8.8,0,0,1,.517-.176.8.8,0,0,1,.509.172.593.593,0,0,1,.218.494v4.071a2.28,2.28,0,0,1,1.048-1.034,3.484,3.484,0,0,1,1.61-.371,3.365,3.365,0,0,1,1.105.172,2.792,2.792,0,0,1,.91.528,2.4,2.4,0,0,1,.636.959,3.883,3.883,0,0,1,.229,1.4v4.382a.614.614,0,0,1-.217.505.77.77,0,0,1-.517.188A.745.745,0,0,1,14893.715-6448.581Zm-18.931,0a.687.687,0,0,1-.21-.54v-6.527a.666.666,0,0,1,.221-.528.783.783,0,0,1,.521-.195.736.736,0,0,1,.5.195.671.671,0,0,1,.214.528v6.527a.68.68,0,0,1-.221.532.767.767,0,0,1-.521.2A.73.73,0,0,1,14874.784-6448.584Zm-5.947.015a.622.622,0,0,1-.209-.5v-6.621a.59.59,0,0,1,.221-.494.786.786,0,0,1,.513-.172.782.782,0,0,1,.514.172.581.581,0,0,1,.213.476l-.008.966a2.4,2.4,0,0,1,.813-1.251,2.221,2.221,0,0,1,1.46-.5.478.478,0,0,1,.408.195.7.7,0,0,1,.15.449.649.649,0,0,1-.135.412.479.479,0,0,1-.4.172,2.375,2.375,0,0,0-1.688.562,1.959,1.959,0,0,0-.6,1.5v4.134a.61.61,0,0,1-.221.5.818.818,0,0,1-.521.176A.781.781,0,0,1,14868.837-6448.57Zm-10.561,0a.62.62,0,0,1-.206-.5v-6.621a.588.588,0,0,1,.218-.494.8.8,0,0,1,.517-.172.774.774,0,0,1,.509.172.582.582,0,0,1,.218.476l-.012.966a2.4,2.4,0,0,1,.813-1.251,2.229,2.229,0,0,1,1.465-.5.487.487,0,0,1,.408.195.717.717,0,0,1,.146.449.649.649,0,0,1-.135.412.477.477,0,0,1-.4.172,2.379,2.379,0,0,0-1.689.562,1.959,1.959,0,0,0-.6,1.5v4.134a.6.6,0,0,1-.225.5.811.811,0,0,1-.521.176A.779.779,0,0,1,14858.276-6448.57Zm-80.669,0a.623.623,0,0,1-.21-.5v-6.621a.59.59,0,0,1,.217-.494.8.8,0,0,1,.517-.172.787.787,0,0,1,.514.172.578.578,0,0,1,.213.476l-.007.966a2.415,2.415,0,0,1,.809-1.251,2.233,2.233,0,0,1,1.464-.5.485.485,0,0,1,.408.195.721.721,0,0,1,.15.449.63.63,0,0,1-.139.412.468.468,0,0,1-.4.172,2.381,2.381,0,0,0-1.688.562,1.96,1.96,0,0,0-.6,1.5v4.134a.6.6,0,0,1-.225.5.809.809,0,0,1-.521.176A.766.766,0,0,1,14777.607-6448.57Zm54.75-.037a.72.72,0,0,1-.243-.573v-4l-3.644-5.569a.648.648,0,0,1-.112-.367.654.654,0,0,1,.255-.517.87.87,0,0,1,.576-.217.75.75,0,0,1,.659.386l3.18,5.011,3.194-5.033a.726.726,0,0,1,.629-.378.7.7,0,0,1,.479.183.575.575,0,0,1,.206.442.7.7,0,0,1-.12.386l-3.662,5.618v4.063a.71.71,0,0,1-.243.566.869.869,0,0,1-.573.206A.882.882,0,0,1,14832.357-6448.607Zm-80.669,0a.705.705,0,0,1-.243-.573v-4l-3.648-5.569a.656.656,0,0,1-.112-.367.669.669,0,0,1,.255-.517.872.872,0,0,1,.577-.217.753.753,0,0,1,.663.386l3.175,5.011,3.2-5.033a.723.723,0,0,1,.629-.378.717.717,0,0,1,.482.183.582.582,0,0,1,.2.442.68.68,0,0,1-.12.386l-3.663,5.618v4.063a.7.7,0,0,1-.243.566.864.864,0,0,1-.569.206A.872.872,0,0,1,14751.688-6448.607Zm122.927-9.864a.84.84,0,0,1-.258-.637.844.844,0,0,1,.262-.644.964.964,0,0,1,.689-.247.951.951,0,0,1,.678.243.854.854,0,0,1,.259.648.84.84,0,0,1-.259.637.948.948,0,0,1-.686.243A.951.951,0,0,1,14874.615-6458.471Zm-39.378-24.447v-2.378h4.416v2.618c0,3.749,1.572,5.951,4.962,5.951s4.962-2.2,4.962-5.951c0-9.287-14.16-10.179-14.16-21.9,0-6.43,3.026-10.418,9.378-10.418,6.415,0,9.44,4.108,9.44,10.418v1.131h-4.479v-1.371c0-3.749-1.449-5.951-4.839-5.951s-4.842,2.2-4.842,5.891c0,9.348,14.22,10.239,14.22,21.964,0,6.31-3.086,10.418-9.562,10.418S14835.237-6476.608,14835.237-6482.918Zm74.3,10v-37.442h-7.8v-4.228H14922v4.228h-7.8v37.442Zm-12.224,0-1.633-8.393h-10.71l-1.633,8.393h-4.355l8.107-41.67h6.835l8.111,41.67Zm-11.736-12.381h9.438l-4.779-24.05Zm-27.166,12.381v-41.67h17.426v4.228h-12.707v14.227h10.348v4.165h-10.348v14.822h12.707v4.228Zm-55.848,0v-41.67h9.924c6.595,0,9.621,3.932,9.621,10.358v21.013c0,6.37-3.026,10.3-9.621,10.3Zm4.719-4.228h5.146c3.385,0,5.021-2.082,5.021-5.891v-21.429c0-3.812-1.637-5.895-5.086-5.895h-5.081Zm-14.46,4.228-10.83-33.693v33.693h-4.235v-41.67h5.992l9.8,30.121v-30.121h4.176v41.67Zm-24.566,0v-41.67h4.723v41.67Zm-20.571,0v-41.67h16.822v4.228h-12.1v15.178h9.744v4.228h-9.744v18.036Z"
        fill="#fff"
        id="Union_1" transform="translate(-14681.999 6515.001)" />
</svg>
